<?xml version="1.0" standalone="no"?>
<!DOCTYPE svg PUBLIC "-//W3C//DTD SVG 20010904//EN"
 "http://www.w3.org/TR/2001/REC-SVG-20010904/DTD/svg10.dtd">
<svg version="1.0" xmlns="http://www.w3.org/2000/svg"
 width="512.000000pt" height="512.000000pt" viewBox="0 0 512.000000 512.000000"
 preserveAspectRatio="xMidYMid meet">

<g transform="translate(0.000000,512.000000) scale(0.100000,-0.100000)"
fill="#B41B1B" stroke="none">
<path d="M2350 5059 c-373 -39 -754 -189 -1058 -416 -104 -78 -288 -258 -372
-363 -251 -315 -405 -687 -451 -1090 -17 -149 -6 -427 21 -555 86 -403 279
-761 651 -1205 147 -176 460 -493 834 -843 176 -165 374 -354 441 -419 84 -82
128 -118 144 -118 16 0 60 36 144 118 67 65 261 249 431 409 352 330 675 654
819 823 607 710 802 1294 665 1990 -108 548 -467 1061 -951 1362 -387 241
-869 353 -1318 307z m462 -604 c312 -54 589 -198 813 -422 215 -214 361 -490
422 -798 27 -137 24 -424 -6 -565 -43 -203 -114 -371 -228 -545 -85 -128 -282
-327 -406 -409 -227 -151 -480 -238 -735 -254 -354 -23 -668 61 -960 255 -124
82 -321 281 -405 408 -114 174 -185 341 -228 545 -31 142 -33 416 -5 565 111
598 566 1071 1156 1204 52 12 131 26 175 31 101 11 299 4 407 -15z"/>
<path d="M2490 4032 c-39 -19 -964 -735 -1022 -790 -100 -95 -80 -259 40 -329
40 -24 57 -28 115 -27 l67 1 0 -454 c0 -494 0 -490 57 -529 27 -18 58 -19 813
-19 755 0 786 1 813 19 57 39 57 35 57 529 l0 454 68 -1 c57 -1 74 3 114 27
86 50 125 152 94 245 -19 56 -47 84 -189 195 l-87 67 0 226 c0 251 -4 269 -64
298 -25 12 -63 16 -140 16 -166 0 -202 -24 -214 -144 l-7 -66 -175 136 c-96
75 -189 143 -207 150 -44 19 -92 17 -133 -4z m454 -768 l366 -285 0 -490 0
-489 -182 2 -183 3 -5 385 c-5 415 -6 417 -60 445 -43 22 -597 22 -640 0 -54
-28 -55 -30 -60 -445 l-5 -385 -182 -3 -183 -2 0 489 0 490 367 286 c201 157
374 285 384 285 9 0 181 -128 383 -286z m-124 -894 l0 -360 -260 0 -260 0 0
360 0 360 260 0 260 0 0 -360z"/>
</g>
</svg>
